{"Secuencia": [{"title":"Deck The Halls"},{"acorde":[{"note": 100, "duration":0,"velocity": 140,"rh": false}]},{"acorde":[{ "note": 60, "duration":1.5, "velocity": 0.8897638, "rh": true},{ "note": 57, "duration":1.5, "velocity": 0.7716535, "rh": false},{ "note": 41, "duration":1.5, "velocity": 0.7716535, "rh": false},{ "note": 48, "duration":1.5, "velocity": 0.7716535, "rh": false}]},{"acorde":[{ "note": 58, "duration":0.5, "velocity": 0.9291338, "rh": true},{ "note": 55, "duration":0.5, "velocity": 0.8031496, "rh": false},{ "note": 41, "duration":0.5, "velocity": 0.8110236, "rh": false},{ "note": 48, "duration":0.5, "velocity": 0.8110236, "rh": false}]},{"acorde":[{ "note": 57, "duration":1, "velocity": 0.8976378, "rh": true},{ "note": 53, "duration":1, "velocity": 0.7637795, "rh": false},{ "note": 41, "duration":1, "velocity": 0.7874016, "rh": false},{ "note": 48, "duration":1, "velocity": 0.7874016, "rh": false}]},{"acorde":[{ "note": 55, "duration":1, "velocity": 0.8503937, "rh": true},{ "note": 52, "duration":1, "velocity": 0.7401575, "rh": false},{ "note": 36, "duration":1, "velocity": 0.7480315, "rh": false},{ "note": 46, "duration":1, "velocity": 0.7480315, "rh": false}]},{"acorde":[{ "note": 53, "duration":1, "velocity": 0.8346457, "rh": true},{ "note": 50, "duration":1, "velocity": 0.7244095, "rh": false},{ "note": 38, "duration":1, "velocity": 0.7401575, "rh": false},{ "note": 45, "duration":1, "velocity": 0.7401575, "rh": false}]},{"acorde":[{ "note": 55, "duration":1, "velocity": 0.8897638, "rh": true},{ "note": 52, "duration":1, "velocity": 0.7716535, "rh": false},{ "note": 36, "duration":1, "velocity": 0.7952756, "rh": false},{ "note": 48, "duration":1, "velocity": 0.7952756, "rh": false}]},{"acorde":[{ "note": 57, "duration":1, "velocity": 0.9212598, "rh": true},{ "note": 53, "duration":1, "velocity": 0.7874016, "rh": false},{ "note": 41, "duration":1, "velocity": 0.7874016, "rh": false},{ "note": 48, "duration":1, "velocity": 0.7874016, "rh": false}]},{"acorde":[{ "note": 53, "duration":1, "velocity": 0.8503937, "rh": true},{ "note": 50, "duration":1, "velocity": 0.7401575, "rh": false},{ "note": 41, "duration":1, "velocity": 0.7401575, "rh": false},{ "note": 45, "duration":1, "velocity": 0.7401575, "rh": false}]},{"acorde":[{ "note": 55, "duration":0.5, "velocity": 0.8976378, "rh": true},{ "note": 52, "duration":0.5, "velocity": 0.7795275, "rh": false},{ "note": 36, "duration":1, "velocity": 0.7874016, "rh": false},{ "note": 48, "duration":1, "velocity": 0.7874016, "rh": false}]},{"acorde":[{ "note": 57, "duration":0.5, "velocity": 0.9291338, "rh": true},{ "note": 53, "duration":0.5, "velocity": 0.7952756, "rh": false}]},{"acorde":[{ "note": 58, "duration":0.5, "velocity": 0.9448819, "rh": true},{ "note": 55, "duration":0.5, "velocity": 0.8267717, "rh": false},{ "note": 36, "duration":1, "velocity": 0.7795275, "rh": false},{ "note": 48, "duration":1, "velocity": 0.7795275, "rh": false}]},{"acorde":[{ "note": 55, "duration":0.5, "velocity": 0.8582677, "rh": true},{ "note": 52, "duration":0.5, "velocity": 0.7480315, "rh": false}]},{"acorde":[{ "note": 57, "duration":1.5, "velocity": 0.9212598, "rh": true},{ "note": 53, "duration":1.5, "velocity": 0.7795275, "rh": false},{ "note": 41, "duration":1.5, "velocity": 0.7795275, "rh": false},{ "note": 48, "duration":1.5, "velocity": 0.7795275, "rh": false}]},{"acorde":[{ "note": 55, "duration":0.5, "velocity": 0.9133858, "rh": true},{ "note": 50, "duration":0.5, "velocity": 0.7637795, "rh": false},{ "note": 34, "duration":0.5, "velocity": 0.7952756, "rh": false},{ "note": 46, "duration":0.5, "velocity": 0.7952756, "rh": false}]},{"acorde":[{ "note": 53, "duration":1, "velocity": 0.8503937, "rh": true},{ "note": 48, "duration":1, "velocity": 0.7165354, "rh": false},{ "note": 36, "duration":1, "velocity": 0.7637795, "rh": false},{ "note": 45, "duration":1, "velocity": 0.7637795, "rh": false}]},{"acorde":[{ "note": 52, "duration":1, "velocity": 0.8346457, "rh": true},{ "note": 48, "duration":1, "velocity": 0.7244095, "rh": false},{ "note": 36, "duration":1, "velocity": 0.7244095, "rh": false},{ "note": 43, "duration":1, "velocity": 0.7244095, "rh": false}]},{"acorde":[{ "note": 53, "duration":2, "velocity": 0.8740157, "rh": true},{ "note": 48, "duration":2, "velocity": 0.7480315, "rh": false},{ "note": 41, "duration":2, "velocity": 0.7716535, "rh": false},{ "note": 45, "duration":2, "velocity": 0.7716535, "rh": false}]},{"acorde":[{ "note": 60, "duration":1.5, "velocity": 0.9527559, "rh": true},{ "note": 57, "duration":1.5, "velocity": 0.8425197, "rh": false},{ "note": 41, "duration":1.5, "velocity": 0.7952756, "rh": false},{ "note": 48, "duration":1.5, "velocity": 0.7952756, "rh": false}]},{"acorde":[{ "note": 58, "duration":0.5, "velocity": 0.9448819, "rh": true},{ "note": 55, "duration":0.5, "velocity": 0.8267717, "rh": false},{ "note": 41, "duration":0.5, "velocity": 0.8267717, "rh": false},{ "note": 48, "duration":0.5, "velocity": 0.8267717, "rh": false}]},{"acorde":[{ "note": 57, "duration":1, "velocity": 0.9055118, "rh": true},{ "note": 53, "duration":1, "velocity": 0.7716535, "rh": false},{ "note": 41, "duration":1, "velocity": 0.7952756, "rh": false},{ "note": 48, "duration":1, "velocity": 0.7952756, "rh": false}]},{"acorde":[{ "note": 55, "duration":1, "velocity": 0.8503937, "rh": true},{ "note": 52, "duration":1, "velocity": 0.7401575, "rh": false},{ "note": 36, "duration":1, "velocity": 0.7480315, "rh": false},{ "note": 46, "duration":1, "velocity": 0.7480315, "rh": false}]},{"acorde":[{ "note": 53, "duration":1, "velocity": 0.8346457, "rh": true},{ "note": 50, "duration":1, "velocity": 0.7244095, "rh": false},{ "note": 38, "duration":1, "velocity": 0.7401575, "rh": false},{ "note": 45, "duration":1, "velocity": 0.7401575, "rh": false}]},{"acorde":[{ "note": 55, "duration":1, "velocity": 0.8897638, "rh": true},{ "note": 52, "duration":1, "velocity": 0.7716535, "rh": false},{ "note": 36, "duration":1, "velocity": 0.7952756, "rh": false},{ "note": 48, "duration":1, "velocity": 0.7952756, "rh": false}]},{"acorde":[{ "note": 57, "duration":1, "velocity": 0.9212598, "rh": true},{ "note": 53, "duration":1, "velocity": 0.7874016, "rh": false},{ "note": 41, "duration":1, "velocity": 0.7874016, "rh": false},{ "note": 48, "duration":1, "velocity": 0.7874016, "rh": false}]},{"acorde":[{ "note": 53, "duration":1, "velocity": 0.8503937, "rh": true},{ "note": 50, "duration":1, "velocity": 0.7401575, "rh": false},{ "note": 41, "duration":1, "velocity": 0.7401575, "rh": false},{ "note": 45, "duration":1, "velocity": 0.7401575, "rh": false}]},{"acorde":[{ "note": 55, "duration":0.5, "velocity": 0.8976378, "rh": true},{ "note": 52, "duration":0.5, "velocity": 0.7795275, "rh": false},{ "note": 36, "duration":1, "velocity": 0.7874016, "rh": false},{ "note": 48, "duration":1, "velocity": 0.7874016, "rh": false}]},{"acorde":[{ "note": 57, "duration":0.5, "velocity": 0.9291338, "rh": true},{ "note": 53, "duration":0.5, "velocity": 0.7952756, "rh": false}]},{"acorde":[{ "note": 58, "duration":0.5, "velocity": 0.9448819, "rh": true},{ "note": 55, "duration":0.5, "velocity": 0.8267717, "rh": false},{ "note": 36, "duration":1, "velocity": 0.7795275, "rh": false},{ "note": 48, "duration":1, "velocity": 0.7795275, "rh": false}]},{"acorde":[{ "note": 55, "duration":0.5, "velocity": 0.8582677, "rh": true},{ "note": 52, "duration":0.5, "velocity": 0.7480315, "rh": false}]},{"acorde":[{ "note": 57, "duration":1.5, "velocity": 0.9212598, "rh": true},{ "note": 48, "duration":1.5, "velocity": 0.7795275, "rh": false},{ "note": 53, "duration":1.5, "velocity": 0.7795275, "rh": false},{ "note": 41, "duration":0.5, "velocity": 0.6929134, "rh": false}]},{"acorde":[{ "note": 43, "duration":0.5, "velocity": 0.7401575, "rh": false}]},{"acorde":[{ "note": 45, "duration":0.5, "velocity": 0.7795275, "rh": false}]},{"acorde":[{ "note": 55, "duration":0.5, "velocity": 0.9133858, "rh": true},{ "note": 50, "duration":0.5, "velocity": 0.7637795, "rh": false},{ "note": 34, "duration":0.5, "velocity": 0.8031496, "rh": false},{ "note": 46, "duration":0.5, "velocity": 0.8031496, "rh": false}]},{"acorde":[{ "note": 53, "duration":1, "velocity": 0.8503937, "rh": true},{ "note": 48, "duration":1, "velocity": 0.7165354, "rh": false},{ "note": 36, "duration":1, "velocity": 0.7795275, "rh": false},{ "note": 45, "duration":1, "velocity": 0.7795275, "rh": false}]},{"acorde":[{ "note": 52, "duration":1, "velocity": 0.8346457, "rh": true},{ "note": 48, "duration":1, "velocity": 0.7244095, "rh": false},{ "note": 36, "duration":1, "velocity": 0.7322835, "rh": false},{ "note": 43, "duration":1, "velocity": 0.7322835, "rh": false}]},{"acorde":[{ "note": 53, "duration":2, "velocity": 0.8740157, "rh": true},{ "note": 48, "duration":2, "velocity": 0.7480315, "rh": false},{ "note": 29, "duration":2, "velocity": 0.7874016, "rh": false},{ "note": 45, "duration":2, "velocity": 0.7874016, "rh": false}]},{"acorde":[{ "note": 55, "duration":1.5, "velocity": 0.9055118, "rh": true},{ "note": 52, "duration":1.5, "velocity": 0.8031496, "rh": false},{ "note": 36, "duration":1.5, "velocity": 0.8031496, "rh": false},{ "note": 48, "duration":1.5, "velocity": 0.8031496, "rh": false}]},{"acorde":[{ "note": 57, "duration":0.5, "velocity": 0.9606299, "rh": true},{ "note": 53, "duration":0.5, "velocity": 0.8346457, "rh": false},{ "note": 36, "duration":0.5, "velocity": 0.8267717, "rh": false},{ "note": 48, "duration":0.5, "velocity": 0.8267717, "rh": false}]},{"acorde":[{ "note": 58, "duration":1, "velocity": 0.9448819, "rh": true},{ "note": 55, "duration":1, "velocity": 0.8267717, "rh": false},{ "note": 36, "duration":1, "velocity": 0.7952756, "rh": false},{ "note": 48, "duration":1, "velocity": 0.7952756, "rh": false}]},{"acorde":[{ "note": 55, "duration":1, "velocity": 0.8661417, "rh": true},{ "note": 52, "duration":1, "velocity": 0.7559055, "rh": false},{ "note": 36, "duration":1, "velocity": 0.7716535, "rh": false},{ "note": 48, "duration":1, "velocity": 0.7716535, "rh": false}]},{"acorde":[{ "note": 57, "duration":1.5, "velocity": 0.8976378, "rh": true},{ "note": 53, "duration":1.5, "velocity": 0.7716535, "rh": false},{ "note": 41, "duration":1.5, "velocity": 0.7716535, "rh": false},{ "note": 48, "duration":1.5, "velocity": 0.7716535, "rh": false}]},{"acorde":[{ "note": 58, "duration":0.5, "velocity": 0.9606299, "rh": true},{ "note": 53, "duration":0.5, "velocity": 0.8110236, "rh": false},{ "note": 41, "duration":0.5, "velocity": 0.7559055, "rh": false},{ "note": 43, "duration":0.5, "velocity": 0.7559055, "rh": false}]},{"acorde":[{ "note": 60, "duration":1, "velocity": 0.9606299, "rh": true},{ "note": 53, "duration":1, "velocity": 0.7874016, "rh": false},{ "note": 41, "duration":1, "velocity": 0.7795275, "rh": false},{ "note": 45, "duration":1, "velocity": 0.7795275, "rh": false}]},{"acorde":[{ "note": 55, "duration":1, "velocity": 0.8346457, "rh": true},{ "note": 40, "duration":1, "velocity": 0.8031496, "rh": false},{ "note": 48, "duration":1, "velocity": 0.8031496, "rh": false}]},{"acorde":[{ "note": 57, "duration":0.5, "velocity": 0.8897638, "rh": true},{ "note": 48, "duration":1, "velocity": 0.7716535, "rh": false},{ "note": 53, "duration":1, "velocity": 0.7716535, "rh": false},{ "note": 41, "duration":1, "velocity": 0.7559055, "rh": false},{ "note": 45, "duration":1, "velocity": 0.7559055, "rh": false}]},{"acorde":[{ "note": 59, "duration":0.5, "velocity": 0.9291338, "rh": true}]},{"acorde":[{ "note": 60, "duration":1, "velocity": 0.9448819, "rh": true},{ "note": 48, "duration":1, "velocity": 0.7874016, "rh": false},{ "note": 55, "duration":1, "velocity": 0.7874016, "rh": false},{ "note": 40, "duration":1, "velocity": 0.7007874, "rh": false}]},{"acorde":[{ "note": 62, "duration":0.5, "velocity": 0.9606299, "rh": true},{ "note": 50, "duration":1, "velocity": 0.8031496, "rh": false},{ "note": 57, "duration":1, "velocity": 0.8031496, "rh": false},{ "note": 41, "duration":1, "velocity": 0.8267717, "rh": false},{ "note": 48, "duration":1, "velocity": 0.8267717, "rh": false}]},{"acorde":[{ "note": 64, "duration":0.5, "velocity": 0.984252, "rh": true}]},{"acorde":[{ "note": 65, "duration":1, "velocity": 0.984252, "rh": true},{ "note": 53, "duration":1, "velocity": 0.7874016, "rh": false},{ "note": 57, "duration":1, "velocity": 0.7874016, "rh": false},{ "note": 38, "duration":1, "velocity": 0.8110236, "rh": false},{ "note": 48, "duration":1, "velocity": 0.8110236, "rh": false}]},{"acorde":[{ "note": 64, "duration":1, "velocity": 0.9291338, "rh": true},{ "note": 48, "duration":1, "velocity": 0.7559055, "rh": false},{ "note": 55, "duration":1, "velocity": 0.7559055, "rh": false},{ "note": 43, "duration":0.5, "velocity": 0.7244095, "rh": false}]},{"acorde":[{ "note": 45, "duration":0.5, "velocity": 0.7716535, "rh": false}]},{"acorde":[{ "note": 62, "duration":1, "velocity": 0.8661417, "rh": true},{ "note": 53, "duration":1, "velocity": 0.7322835, "rh": false},{ "note": 31, "duration":1, "velocity": 0.8031496, "rh": false},{ "note": 47, "duration":1, "velocity": 0.8031496, "rh": false}]},{"acorde":[{ "note": 60, "duration":2, "velocity": 0.8425197, "rh": true},{ "note": 52, "duration":2, "velocity": 0.7322835, "rh": false},{ "note": 36, "duration":2, "velocity": 0.8110236, "rh": false},{ "note": 48, "duration":2, "velocity": 0.8110236, "rh": false}]},{"acorde":[{ "note": 60, "duration":1.5, "velocity": 0.8740157, "rh": true},{ "note": 57, "duration":1.5, "velocity": 0.8031496, "rh": false},{ "note": 41, "duration":1.5, "velocity": 0.7874016, "rh": false},{ "note": 48, "duration":1.5, "velocity": 0.7874016, "rh": false}]},{"acorde":[{ "note": 58, "duration":0.5, "velocity": 0.9133858, "rh": true},{ "note": 55, "duration":0.5, "velocity": 0.8110236, "rh": false},{ "note": 40, "duration":0.5, "velocity": 0.8188977, "rh": false},{ "note": 48, "duration":0.5, "velocity": 0.8188977, "rh": false}]},{"acorde":[{ "note": 57, "duration":1, "velocity": 0.8818898, "rh": true},{ "note": 53, "duration":1, "velocity": 0.7637795, "rh": false},{ "note": 41, "duration":1, "velocity": 0.7952756, "rh": false},{ "note": 48, "duration":1, "velocity": 0.7952756, "rh": false}]},{"acorde":[{ "note": 55, "duration":1, "velocity": 0.8425197, "rh": true},{ "note": 52, "duration":1, "velocity": 0.7401575, "rh": false},{ "note": 36, "duration":1, "velocity": 0.7716535, "rh": false},{ "note": 48, "duration":1, "velocity": 0.7716535, "rh": false}]},{"acorde":[{ "note": 53, "duration":1, "velocity": 0.8346457, "rh": true},{ "note": 50, "duration":1, "velocity": 0.7244095, "rh": false},{ "note": 38, "duration":1, "velocity": 0.7322835, "rh": false},{ "note": 45, "duration":1, "velocity": 0.7322835, "rh": false}]},{"acorde":[{ "note": 55, "duration":1, "velocity": 0.8897638, "rh": true},{ "note": 52, "duration":1, "velocity": 0.7716535, "rh": false},{ "note": 36, "duration":1, "velocity": 0.7874016, "rh": false},{ "note": 48, "duration":1, "velocity": 0.7874016, "rh": false}]},{"acorde":[{ "note": 57, "duration":1, "velocity": 0.9212598, "rh": true},{ "note": 53, "duration":1, "velocity": 0.7874016, "rh": false},{ "note": 41, "duration":1, "velocity": 0.7795275, "rh": false},{ "note": 48, "duration":1, "velocity": 0.7795275, "rh": false}]},{"acorde":[{ "note": 53, "duration":1, "velocity": 0.8503937, "rh": true},{ "note": 48, "duration":1, "velocity": 0.7165354, "rh": false},{ "note": 41, "duration":1, "velocity": 0.7401575, "rh": false},{ "note": 45, "duration":1, "velocity": 0.7401575, "rh": false}]},{"acorde":[{ "note": 62, "duration":0.5, "velocity": 0.992126, "rh": true},{ "note": 53, "duration":0.5, "velocity": 0.8031496, "rh": false},{ "note": 46, "duration":1, "velocity": 0.7637795, "rh": false}]},{"acorde":[{ "note": 62, "duration":0.5, "velocity": 0.976378, "rh": true},{ "note": 53, "duration":0.5, "velocity": 0.7952756, "rh": false}]},{"acorde":[{ "note": 62, "duration":0.5, "velocity": 0.9606299, "rh": true},{ "note": 53, "duration":0.5, "velocity": 0.7874016, "rh": false},{ "note": 46, "duration":1, "velocity": 0.7637795, "rh": false}]},{"acorde":[{ "note": 62, "duration":0.5, "velocity": 0.9370078, "rh": true},{ "note": 53, "duration":0.5, "velocity": 0.7874016, "rh": false}]},{"acorde":[{ "note": 60, "duration":1.5, "velocity": 0.8740157, "rh": true},{ "note": 53, "duration":1.5, "velocity": 0.7795275, "rh": false},{ "note": 45, "duration":1.5, "velocity": 0.7952756, "rh": false},{ "note": 48, "duration":1.5, "velocity": 0.7952756, "rh": false}]},{"acorde":[{ "note": 58, "duration":0.5, "velocity": 0.8818898, "rh": true},{ "note": 55, "duration":0.5, "velocity": 0.8503937, "rh": false},{ "note": 46, "duration":0.5, "velocity": 0.8425197, "rh": false},{ "note": 50, "duration":0.5, "velocity": 0.8425197, "rh": false}]},{"acorde":[{ "note": 57, "duration":1, "velocity": 0.8503937, "rh": true},{ "note": 53, "duration":1, "velocity": 0.7795275, "rh": false},{ "note": 48, "duration":1, "velocity": 0.7874016, "rh": false}]},{"acorde":[{ "note": 55, "duration":1, "velocity": 0.8110236, "rh": true},{ "note": 52, "duration":1, "velocity": 0.7480315, "rh": false},{ "note": 36, "duration":1, "velocity": 0.7401575, "rh": false},{ "note": 46, "duration":1, "velocity": 0.7401575, "rh": false}]},{"acorde":[{ "note": 53, "duration":2, "velocity": 0.8188977, "rh": true},{ "note": 29, "duration":2, "velocity": 0.7322835, "rh": false},{ "note": 36, "duration":2, "velocity": 0.7322835, "rh": false},{ "note": 45, "duration":2, "velocity": 0.7322835, "rh": false}]}]}