{"Secuencia": [{"title":"Hark! The Herald Angels Sing"},{"acorde":[{"note": 100, "duration":0,"velocity": 100,"rh": false}]},{"acorde":[{ "note": 50, "duration":1, "velocity": 0.7716535, "rh": true},{ "note": 47, "duration":1, "velocity": 0.6614173, "rh": false},{ "note": 43, "duration":1, "velocity": 0.6614173, "rh": false}]},{"acorde":[{ "note": 55, "duration":1, "velocity": 0.7952756, "rh": true},{ "note": 50, "duration":1, "velocity": 0.6614173, "rh": false},{ "note": 47, "duration":1, "velocity": 0.6614173, "rh": false},{ "note": 43, "duration":1, "velocity": 0.6614173, "rh": false}]},{"acorde":[{ "note": 55, "duration":1.5, "velocity": 0.7795275, "rh": true},{ "note": 50, "duration":1.5, "velocity": 0.6614173, "rh": false},{ "note": 47, "duration":1.5, "velocity": 0.6614173, "rh": false},{ "note": 43, "duration":1.5, "velocity": 0.6614173, "rh": false}]},{"acorde":[{ "note": 54, "duration":0.5, "velocity": 0.7795275, "rh": true},{ "note": 50, "duration":0.5, "velocity": 0.6692913, "rh": false},{ "note": 45, "duration":0.5, "velocity": 0.6614173, "rh": false},{ "note": 38, "duration":0.5, "velocity": 0.6535433, "rh": false}]},{"acorde":[{ "note": 55, "duration":1, "velocity": 0.7874016, "rh": true},{ "note": 50, "duration":1, "velocity": 0.6692913, "rh": false},{ "note": 43, "duration":1, "velocity": 0.6456693, "rh": false},{ "note": 35, "duration":1, "velocity": 0.6377953, "rh": false}]},{"acorde":[{ "note": 59, "duration":1, "velocity": 0.8110236, "rh": true},{ "note": 55, "duration":1, "velocity": 0.7007874, "rh": false},{ "note": 50, "duration":1, "velocity": 0.7086614, "rh": false},{ "note": 31, "duration":1, "velocity": 0.6377953, "rh": false}]},{"acorde":[{ "note": 59, "duration":1, "velocity": 0.7874016, "rh": true},{ "note": 55, "duration":1, "velocity": 0.6771653, "rh": false},{ "note": 50, "duration":2, "velocity": 0.6850393, "rh": false},{ "note": 38, "duration":2, "velocity": 0.6850393, "rh": false}]},{"acorde":[{ "note": 57, "duration":1, "velocity": 0.7637795, "rh": true},{ "note": 54, "duration":1, "velocity": 0.6614173, "rh": false}]},{"acorde":[{ "note": 62, "duration":1, "velocity": 0.8031496, "rh": true},{ "note": 55, "duration":1, "velocity": 0.6614173, "rh": false},{ "note": 50, "duration":1, "velocity": 0.6614173, "rh": false},{ "note": 35, "duration":1, "velocity": 0.6614173, "rh": false}]},{"acorde":[{ "note": 62, "duration":1, "velocity": 0.7874016, "rh": true},{ "note": 54, "duration":1, "velocity": 0.6535433, "rh": false},{ "note": 50, "duration":1, "velocity": 0.6614173, "rh": false},{ "note": 35, "duration":1, "velocity": 0.6614173, "rh": false}]},{"acorde":[{ "note": 62, "duration":1.5, "velocity": 0.7795275, "rh": true},{ "note": 52, "duration":1, "velocity": 0.6456693, "rh": false},{ "note": 36, "duration":1, "velocity": 0.6614173, "rh": false}]},{"acorde":[{ "note": 57, "duration":1, "velocity": 0.6850393, "rh": false},{ "note": 52, "duration":1, "velocity": 0.6692913, "rh": false},{ "note": 36, "duration":1, "velocity": 0.6614173, "rh": false},{ "note": 0, "duration":0.5, "velocity": 0.7, "rh": false}]},{"acorde":[{ "note": 60, "duration":0.5, "velocity": 0.7716535, "rh": true}]},{"acorde":[{ "note": 59, "duration":1, "velocity": 0.7637795, "rh": true},{ "note": 55, "duration":1, "velocity": 0.6614173, "rh": false},{ "note": 50, "duration":1, "velocity": 0.6535433, "rh": false},{ "note": 38, "duration":1, "velocity": 0.6692913, "rh": false}]},{"acorde":[{ "note": 57, "duration":1, "velocity": 0.7401575, "rh": true},{ "note": 54, "duration":1, "velocity": 0.6535433, "rh": false},{ "note": 50, "duration":1, "velocity": 0.6535433, "rh": false},{ "note": 38, "duration":1, "velocity": 0.6692913, "rh": false}]},{"acorde":[{ "note": 59, "duration":2, "velocity": 0.7795275, "rh": true},{ "note": 55, "duration":2, "velocity": 0.6614173, "rh": false},{ "note": 50, "duration":2, "velocity": 0.6614173, "rh": false},{ "note": 31, "duration":2, "velocity": 0.6377953, "rh": false}]},{"acorde":[{ "note": 50, "duration":1, "velocity": 0.7401575, "rh": true},{ "note": 47, "duration":1, "velocity": 0.6535433, "rh": false},{ "note": 43, "duration":1, "velocity": 0.6929134, "rh": false}]},{"acorde":[{ "note": 55, "duration":1, "velocity": 0.7874016, "rh": true},{ "note": 50, "duration":1, "velocity": 0.6535433, "rh": false},{ "note": 47, "duration":1, "velocity": 0.6535433, "rh": false},{ "note": 43, "duration":1, "velocity": 0.6692913, "rh": false}]},{"acorde":[{ "note": 55, "duration":1.5, "velocity": 0.7795275, "rh": true},{ "note": 50, "duration":1.5, "velocity": 0.6614173, "rh": false},{ "note": 47, "duration":1.5, "velocity": 0.6614173, "rh": false},{ "note": 43, "duration":1.5, "velocity": 0.6614173, "rh": false}]},{"acorde":[{ "note": 54, "duration":0.5, "velocity": 0.7795275, "rh": true},{ "note": 48, "duration":0.5, "velocity": 0.6614173, "rh": false},{ "note": 45, "duration":0.5, "velocity": 0.6614173, "rh": false},{ "note": 38, "duration":0.5, "velocity": 0.6535433, "rh": false}]},{"acorde":[{ "note": 55, "duration":1, "velocity": 0.7874016, "rh": true},{ "note": 47, "duration":1, "velocity": 0.6535433, "rh": false},{ "note": 43, "duration":1, "velocity": 0.6456693, "rh": false},{ "note": 40, "duration":1, "velocity": 0.6692913, "rh": false}]},{"acorde":[{ "note": 59, "duration":1, "velocity": 0.8110236, "rh": true},{ "note": 55, "duration":1, "velocity": 0.7165354, "rh": false},{ "note": 50, "duration":1, "velocity": 0.7086614, "rh": false},{ "note": 38, "duration":1, "velocity": 0.6456693, "rh": false}]},{"acorde":[{ "note": 59, "duration":1, "velocity": 0.7874016, "rh": true},{ "note": 55, "duration":2, "velocity": 0.6850393, "rh": false},{ "note": 52, "duration":2, "velocity": 0.7007874, "rh": false},{ "note": 37, "duration":1.5, "velocity": 0.6535433, "rh": false}]},{"acorde":[{ "note": 57, "duration":1, "velocity": 0.7637795, "rh": true},{ "note": 0, "duration":0.5, "velocity": 0.7, "rh": false}]},{"acorde":[{ "note": 33, "duration":0.5, "velocity": 0.6614173, "rh": false}]},{"acorde":[{ "note": 62, "duration":1, "velocity": 0.8031496, "rh": true},{ "note": 54, "duration":1, "velocity": 0.6614173, "rh": false},{ "note": 50, "duration":1, "velocity": 0.6614173, "rh": false},{ "note": 35, "duration":1, "velocity": 0.6692913, "rh": false}]},{"acorde":[{ "note": 57, "duration":1, "velocity": 0.7480315, "rh": true},{ "note": 52, "duration":1, "velocity": 0.6456693, "rh": false},{ "note": 52, "duration":1, "velocity": 0.6692913, "rh": false},{ "note": 37, "duration":1, "velocity": 0.6771653, "rh": false}]},{"acorde":[{ "note": 57, "duration":1.5, "velocity": 0.7559055, "rh": true},{ "note": 54, "duration":1.5, "velocity": 0.6692913, "rh": false},{ "note": 45, "duration":1.5, "velocity": 0.6220472, "rh": false},{ "note": 38, "duration":1, "velocity": 0.6771653, "rh": false}]},{"acorde":[{ "note": 30, "duration":1, "velocity": 0.6377953, "rh": false},{ "note": 0, "duration":0.5, "velocity": 0.7, "rh": false}]},{"acorde":[{ "note": 54, "duration":0.5, "velocity": 0.7637795, "rh": true},{ "note": 50, "duration":0.5, "velocity": 0.6535433, "rh": false},{ "note": 45, "duration":0.5, "velocity": 0.6614173, "rh": false}]},{"acorde":[{ "note": 54, "duration":1, "velocity": 0.7637795, "rh": true},{ "note": 50, "duration":1, "velocity": 0.6535433, "rh": false},{ "note": 47, "duration":1, "velocity": 0.6771653, "rh": false},{ "note": 31, "duration":1, "velocity": 0.6535433, "rh": false}]},{"acorde":[{ "note": 52, "duration":1, "velocity": 0.7480315, "rh": true},{ "note": 49, "duration":1, "velocity": 0.6456693, "rh": false},{ "note": 43, "duration":1, "velocity": 0.6377953, "rh": false},{ "note": 33, "duration":1, "velocity": 0.6614173, "rh": false}]},{"acorde":[{ "note": 50, "duration":2, "velocity": 0.7401575, "rh": true},{ "note": 50, "duration":2, "velocity": 0.6614173, "rh": false},{ "note": 42, "duration":2, "velocity": 0.6377953, "rh": false},{ "note": 38, "duration":2, "velocity": 0.6929134, "rh": false}]},{"acorde":[{ "note": 62, "duration":1, "velocity": 0.8110236, "rh": true},{ "note": 50, "duration":1, "velocity": 0.6614173, "rh": false}]},{"acorde":[{ "note": 62, "duration":1, "velocity": 0.7874016, "rh": true},{ "note": 50, "duration":1, "velocity": 0.6614173, "rh": false}]},{"acorde":[{ "note": 62, "duration":1, "velocity": 0.7716535, "rh": true},{ "note": 50, "duration":1, "velocity": 0.6614173, "rh": false}]},{"acorde":[{ "note": 55, "duration":1, "velocity": 0.7165354, "rh": true},{ "note": 47, "duration":1, "velocity": 0.6614173, "rh": false},{ "note": 50, "duration":1, "velocity": 0.6614173, "rh": false}]},{"acorde":[{ "note": 60, "duration":1, "velocity": 0.7874016, "rh": true},{ "note": 57, "duration":1, "velocity": 0.6850393, "rh": false},{ "note": 42, "duration":1, "velocity": 0.6614173, "rh": false},{ "note": 50, "duration":1, "velocity": 0.6614173, "rh": false}]},{"acorde":[{ "note": 59, "duration":1, "velocity": 0.7716535, "rh": true},{ "note": 55, "duration":1, "velocity": 0.6614173, "rh": false},{ "note": 43, "duration":1, "velocity": 0.6614173, "rh": false},{ "note": 50, "duration":1, "velocity": 0.6614173, "rh": false}]},{"acorde":[{ "note": 59, "duration":1, "velocity": 0.7716535, "rh": true},{ "note": 55, "duration":1, "velocity": 0.6535433, "rh": false},{ "note": 38, "duration":2, "velocity": 0.6614173, "rh": false},{ "note": 50, "duration":2, "velocity": 0.6614173, "rh": false}]},{"acorde":[{ "note": 57, "duration":1, "velocity": 0.7559055, "rh": true},{ "note": 54, "duration":1, "velocity": 0.6535433, "rh": false}]},{"acorde":[{ "note": 62, "duration":1, "velocity": 0.8031496, "rh": true},{ "note": 50, "duration":1, "velocity": 0.6299213, "rh": false}]},{"acorde":[{ "note": 62, "duration":1, "velocity": 0.7874016, "rh": true},{ "note": 50, "duration":1, "velocity": 0.6456693, "rh": false}]},{"acorde":[{ "note": 62, "duration":1, "velocity": 0.7795275, "rh": true},{ "note": 50, "duration":1, "velocity": 0.6535433, "rh": false}]},{"acorde":[{ "note": 55, "duration":1, "velocity": 0.7165354, "rh": true},{ "note": 47, "duration":1, "velocity": 0.6614173, "rh": false},{ "note": 50, "duration":1, "velocity": 0.6614173, "rh": false}]},{"acorde":[{ "note": 60, "duration":1, "velocity": 0.7874016, "rh": true},{ "note": 57, "duration":1, "velocity": 0.6850393, "rh": false},{ "note": 42, "duration":1, "velocity": 0.6614173, "rh": false},{ "note": 50, "duration":1, "velocity": 0.6614173, "rh": false}]},{"acorde":[{ "note": 59, "duration":1, "velocity": 0.7716535, "rh": true},{ "note": 55, "duration":1, "velocity": 0.6614173, "rh": false},{ "note": 43, "duration":1, "velocity": 0.6614173, "rh": false},{ "note": 50, "duration":1, "velocity": 0.6614173, "rh": false}]},{"acorde":[{ "note": 59, "duration":1, "velocity": 0.7716535, "rh": true},{ "note": 55, "duration":1, "velocity": 0.6535433, "rh": false},{ "note": 38, "duration":2, "velocity": 0.6614173, "rh": false},{ "note": 50, "duration":2, "velocity": 0.6614173, "rh": false}]},{"acorde":[{ "note": 57, "duration":1, "velocity": 0.7559055, "rh": true},{ "note": 54, "duration":1, "velocity": 0.6535433, "rh": false}]},{"acorde":[{ "note": 64, "duration":1, "velocity": 0.8188977, "rh": true},{ "note": 60, "duration":1, "velocity": 0.7007874, "rh": false},{ "note": 36, "duration":1, "velocity": 0.6692913, "rh": false},{ "note": 52, "duration":1, "velocity": 0.6692913, "rh": false}]},{"acorde":[{ "note": 64, "duration":1, "velocity": 0.7952756, "rh": true},{ "note": 60, "duration":1, "velocity": 0.6771653, "rh": false},{ "note": 36, "duration":1, "velocity": 0.6614173, "rh": false},{ "note": 52, "duration":1, "velocity": 0.6614173, "rh": false}]},{"acorde":[{ "note": 64, "duration":1, "velocity": 0.7795275, "rh": true},{ "note": 60, "duration":1, "velocity": 0.6692913, "rh": false},{ "note": 36, "duration":1, "velocity": 0.6614173, "rh": false},{ "note": 52, "duration":1, "velocity": 0.6614173, "rh": false}]},{"acorde":[{ "note": 62, "duration":1, "velocity": 0.7559055, "rh": true},{ "note": 59, "duration":1, "velocity": 0.6535433, "rh": false},{ "note": 38, "duration":1, "velocity": 0.6692913, "rh": false},{ "note": 53, "duration":1, "velocity": 0.6692913, "rh": false}]},{"acorde":[{ "note": 60, "duration":1, "velocity": 0.7480315, "rh": true},{ "note": 57, "duration":1, "velocity": 0.6456693, "rh": false},{ "note": 40, "duration":1, "velocity": 0.6535433, "rh": false},{ "note": 52, "duration":1, "velocity": 0.6535433, "rh": false}]},{"acorde":[{ "note": 59, "duration":1, "velocity": 0.7480315, "rh": true},{ "note": 56, "duration":1, "velocity": 0.6456693, "rh": false},{ "note": 40, "duration":1, "velocity": 0.6456693, "rh": false},{ "note": 50, "duration":1, "velocity": 0.6456693, "rh": false}]},{"acorde":[{ "note": 60, "duration":2, "velocity": 0.7716535, "rh": true},{ "note": 57, "duration":2, "velocity": 0.6614173, "rh": false},{ "note": 45, "duration":2, "velocity": 0.6377953, "rh": false},{ "note": 48, "duration":2, "velocity": 0.6377953, "rh": false}]},{"acorde":[{ "note": 57, "duration":1, "velocity": 0.7559055, "rh": true},{ "note": 54, "duration":1, "velocity": 0.6535433, "rh": false},{ "note": 50, "duration":1, "velocity": 0.6614173, "rh": false}]},{"acorde":[{ "note": 59, "duration":0.5, "velocity": 0.7795275, "rh": true},{ "note": 54, "duration":1, "velocity": 0.6535433, "rh": false},{ "note": 48, "duration":1, "velocity": 0.6614173, "rh": false},{ "note": 50, "duration":1, "velocity": 0.6614173, "rh": false}]},{"acorde":[{ "note": 60, "duration":0.5, "velocity": 0.7874016, "rh": true}]},{"acorde":[{ "note": 62, "duration":1.5, "velocity": 0.8110236, "rh": true},{ "note": 55, "duration":1.5, "velocity": 0.6692913, "rh": false},{ "note": 47, "duration":1.5, "velocity": 0.6614173, "rh": false},{ "note": 50, "duration":1.5, "velocity": 0.6614173, "rh": false}]},{"acorde":[{ "note": 55, "duration":0.5, "velocity": 0.7401575, "rh": true},{ "note": 50, "duration":0.5, "velocity": 0.6535433, "rh": false},{ "note": 43, "duration":0.5, "velocity": 0.6614173, "rh": false},{ "note": 47, "duration":0.5, "velocity": 0.6614173, "rh": false}]},{"acorde":[{ "note": 55, "duration":1, "velocity": 0.7480315, "rh": true},{ "note": 50, "duration":1, "velocity": 0.6535433, "rh": false},{ "note": 38, "duration":1, "velocity": 0.6535433, "rh": false},{ "note": 47, "duration":1, "velocity": 0.6535433, "rh": false}]},{"acorde":[{ "note": 57, "duration":1, "velocity": 0.7795275, "rh": true},{ "note": 54, "duration":1, "velocity": 0.6850393, "rh": false},{ "note": 38, "duration":1, "velocity": 0.6771653, "rh": false},{ "note": 50, "duration":1, "velocity": 0.6771653, "rh": false}]},{"acorde":[{ "note": 59, "duration":2, "velocity": 0.7952756, "rh": true},{ "note": 55, "duration":2, "velocity": 0.6850393, "rh": false},{ "note": 43, "duration":2, "velocity": 0.6692913, "rh": false},{ "note": 50, "duration":2, "velocity": 0.6692913, "rh": false}]},{"acorde":[{ "note": 64, "duration":1.5, "velocity": 0.7952756, "rh": true},{ "note": 60, "duration":1.5, "velocity": 0.6771653, "rh": false},{ "note": 48, "duration":1.5, "velocity": 0.6692913, "rh": false},{ "note": 52, "duration":1.5, "velocity": 0.6692913, "rh": false}]},{"acorde":[{ "note": 64, "duration":0.5, "velocity": 0.7874016, "rh": true},{ "note": 60, "duration":0.5, "velocity": 0.6771653, "rh": false},{ "note": 48, "duration":0.5, "velocity": 0.6771653, "rh": false},{ "note": 52, "duration":0.5, "velocity": 0.6771653, "rh": false}]},{"acorde":[{ "note": 64, "duration":1, "velocity": 0.7795275, "rh": true},{ "note": 60, "duration":1, "velocity": 0.6692913, "rh": false},{ "note": 48, "duration":1, "velocity": 0.6692913, "rh": false},{ "note": 52, "duration":1, "velocity": 0.6692913, "rh": false}]},{"acorde":[{ "note": 62, "duration":1, "velocity": 0.7559055, "rh": true},{ "note": 59, "duration":1, "velocity": 0.6535433, "rh": false},{ "note": 47, "duration":1, "velocity": 0.6456693, "rh": false},{ "note": 50, "duration":1, "velocity": 0.6456693, "rh": false}]},{"acorde":[{ "note": 60, "duration":1, "velocity": 0.7401575, "rh": true},{ "note": 57, "duration":1, "velocity": 0.6377953, "rh": false},{ "note": 45, "duration":1, "velocity": 0.6377953, "rh": false},{ "note": 48, "duration":1, "velocity": 0.6377953, "rh": false}]},{"acorde":[{ "note": 59, "duration":1, "velocity": 0.7480315, "rh": true},{ "note": 56, "duration":1, "velocity": 0.6456693, "rh": false},{ "note": 44, "duration":1, "velocity": 0.6456693, "rh": false},{ "note": 47, "duration":1, "velocity": 0.6456693, "rh": false}]},{"acorde":[{ "note": 60, "duration":2, "velocity": 0.7716535, "rh": true},{ "note": 57, "duration":2, "velocity": 0.6614173, "rh": false},{ "note": 45, "duration":2, "velocity": 0.6614173, "rh": false},{ "note": 48, "duration":2, "velocity": 0.6614173, "rh": false}]},{"acorde":[{ "note": 57, "duration":1, "velocity": 0.7559055, "rh": true},{ "note": 54, "duration":1, "velocity": 0.6535433, "rh": false},{ "note": 50, "duration":1, "velocity": 0.6692913, "rh": false},{ "note": 42, "duration":1, "velocity": 0.6614173, "rh": false}]},{"acorde":[{ "note": 59, "duration":0.5, "velocity": 0.7795275, "rh": true},{ "note": 54, "duration":1, "velocity": 0.6535433, "rh": false},{ "note": 50, "duration":1, "velocity": 0.6614173, "rh": false},{ "note": 48, "duration":1, "velocity": 0.6850393, "rh": false}]},{"acorde":[{ "note": 60, "duration":0.5, "velocity": 0.7874016, "rh": true}]},{"acorde":[{ "note": 62, "duration":1.5, "velocity": 0.8110236, "rh": true},{ "note": 55, "duration":1.5, "velocity": 0.6692913, "rh": false},{ "note": 50, "duration":1.5, "velocity": 0.6614173, "rh": false},{ "note": 47, "duration":1, "velocity": 0.6692913, "rh": false}]},{"acorde":[{ "note": 43, "duration":1, "velocity": 0.6377953, "rh": false},{ "note": 0, "duration":0.5, "velocity": 0.7, "rh": false}]},{"acorde":[{ "note": 55, "duration":0.5, "velocity": 0.7401575, "rh": true},{ "note": 50, "duration":0.5, "velocity": 0.6535433, "rh": false},{ "note": 47, "duration":0.5, "velocity": 0.6614173, "rh": false}]},{"acorde":[{ "note": 55, "duration":1, "velocity": 0.7480315, "rh": true},{ "note": 50, "duration":1, "velocity": 0.6535433, "rh": false},{ "note": 47, "duration":1, "velocity": 0.6535433, "rh": false},{ "note": 38, "duration":1, "velocity": 0.6220472, "rh": false}]},{"acorde":[{ "note": 57, "duration":1, "velocity": 0.7795275, "rh": true},{ "note": 54, "duration":1, "velocity": 0.6850393, "rh": false},{ "note": 48, "duration":1, "velocity": 0.6614173, "rh": false},{ "note": 38, "duration":1, "velocity": 0.6456693, "rh": false}]},{"acorde":[{ "note": 55, "duration":2, "velocity": 0.7559055, "rh": true},{ "note": 47, "duration":2, "velocity": 0.6535433, "rh": false},{ "note": 43, "duration":2, "velocity": 0.6850393, "rh": false}]}]}