{"Secuencia": [{"title":"Joy to the World"},{"acorde":[{"note": 100, "duration":0,"velocity": 95,"rh": false}]},{"acorde":[{ "note": 60, "duration":1, "velocity": 0.6614173, "rh": true},{ "note": 48, "duration":1, "velocity": 0.5590551, "rh": false},{ "note": 40, "duration":1, "velocity": 0.5590551, "rh": false},{ "note": 36, "duration":1, "velocity": 0.5984252, "rh": false}]},{"acorde":[{ "note": 59, "duration":0.75, "velocity": 0.6535433, "rh": true},{ "note": 48, "duration":0.75, "velocity": 0.5590551, "rh": false},{ "note": 43, "duration":0.75, "velocity": 0.5669292, "rh": false},{ "note": 36, "duration":0.75, "velocity": 0.5984252, "rh": false}]},{"acorde":[{ "note": 57, "duration":0.25, "velocity": 0.6929134, "rh": true},{ "note": 48, "duration":0.25, "velocity": 0.6062992, "rh": false},{ "note": 41, "duration":0.25, "velocity": 0.5984252, "rh": false},{ "note": 36, "duration":0.25, "velocity": 0.6456693, "rh": false}]},{"acorde":[{ "note": 55, "duration":1.5, "velocity": 0.6456693, "rh": true},{ "note": 48, "duration":1.5, "velocity": 0.5826772, "rh": false},{ "note": 40, "duration":1.5, "velocity": 0.5669292, "rh": false},{ "note": 36, "duration":1.5, "velocity": 0.6220472, "rh": false}]},{"acorde":[{ "note": 53, "duration":0.5, "velocity": 0.6377953, "rh": true},{ "note": 50, "duration":0.5, "velocity": 0.5748032, "rh": false},{ "note": 45, "duration":0.5, "velocity": 0.5826772, "rh": false},{ "note": 29, "duration":0.5, "velocity": 0.5748032, "rh": false}]},{"acorde":[{ "note": 52, "duration":1, "velocity": 0.6377953, "rh": true},{ "note": 48, "duration":1, "velocity": 0.5511811, "rh": false},{ "note": 43, "duration":1.5, "velocity": 0.5590551, "rh": false},{ "note": 31, "duration":1, "velocity": 0.5905512, "rh": false}]},{"acorde":[{ "note": 50, "duration":1, "velocity": 0.6377953, "rh": true},{ "note": 47, "duration":1, "velocity": 0.5511811, "rh": false},{ "note": 31, "duration":1, "velocity": 0.5984252, "rh": false},{ "note": 0, "duration":0.5, "velocity": 0.7, "rh": false}]},{"acorde":[{ "note": 41, "duration":0.5, "velocity": 0.5511811, "rh": false}]},{"acorde":[{ "note": 48, "duration":1.5, "velocity": 0.6377953, "rh": true},{ "note": 40, "duration":1.5, "velocity": 0.5433071, "rh": false},{ "note": 36, "duration":1.5, "velocity": 0.6220472, "rh": false}]},{"acorde":[{ "note": 55, "duration":0.5, "velocity": 0.6850393, "rh": true},{ "note": 52, "duration":0.5, "velocity": 0.5669292, "rh": false},{ "note": 48, "duration":0.5, "velocity": 0.5905512, "rh": false},{ "note": 40, "duration":0.5, "velocity": 0.6220472, "rh": false}]},{"acorde":[{ "note": 57, "duration":1.5, "velocity": 0.6929134, "rh": true},{ "note": 53, "duration":1.5, "velocity": 0.5669292, "rh": false},{ "note": 48, "duration":1.5, "velocity": 0.5826772, "rh": false},{ "note": 41, "duration":1.5, "velocity": 0.6220472, "rh": false}]},{"acorde":[{ "note": 57, "duration":0.5, "velocity": 0.6692913, "rh": true},{ "note": 53, "duration":0.5, "velocity": 0.5590551, "rh": false},{ "note": 48, "duration":0.5, "velocity": 0.5669292, "rh": false},{ "note": 41, "duration":0.5, "velocity": 0.6062992, "rh": false}]},{"acorde":[{ "note": 59, "duration":1.5, "velocity": 0.6771653, "rh": true},{ "note": 53, "duration":1.5, "velocity": 0.5590551, "rh": false},{ "note": 43, "duration":1.5, "velocity": 0.527559, "rh": false}]},{"acorde":[{ "note": 59, "duration":0.5, "velocity": 0.6692913, "rh": true},{ "note": 53, "duration":0.5, "velocity": 0.5590551, "rh": false},{ "note": 43, "duration":0.5, "velocity": 0.5511811, "rh": false}]},{"acorde":[{ "note": 60, "duration":2.5, "velocity": 0.6692913, "rh": true},{ "note": 52, "duration":2.5, "velocity": 0.5511811, "rh": false},{ "note": 43, "duration":2.5, "velocity": 0.5511811, "rh": false},{ "note": 36, "duration":2.5, "velocity": 0.5984252, "rh": false}]},{"acorde":[{ "note": 0, "duration":1, "velocity": 0.5905512, "rh": false}]},{"acorde":[{ "note": 60, "duration":0.5, "velocity": 0.6614173, "rh": true},{ "note": 52, "duration":0.5, "velocity": 0.5590551, "rh": false},{ "note": 43, "duration":0.5, "velocity": 0.5590551, "rh": false},{ "note": 36, "duration":0.5, "velocity": 0.6299213, "rh": false}]},{"acorde":[{ "note": 60, "duration":0.5, "velocity": 0.6614173, "rh": true},{ "note": 52, "duration":0.5, "velocity": 0.5590551, "rh": false},{ "note": 43, "duration":1, "velocity": 0.5590551, "rh": false},{ "note": 36, "duration":1, "velocity": 0.6220472, "rh": false}]},{"acorde":[{ "note": 59, "duration":0.5, "velocity": 0.6535433, "rh": true},{ "note": 55, "duration":0.5, "velocity": 0.5826772, "rh": false}]},{"acorde":[{ "note": 57, "duration":0.5, "velocity": 0.6299213, "rh": true},{ "note": 53, "duration":0.5, "velocity": 0.5590551, "rh": false},{ "note": 48, "duration":1, "velocity": 0.5905512, "rh": false},{ "note": 36, "duration":1, "velocity": 0.6141732, "rh": false}]},{"acorde":[{ "note": 55, "duration":0.5, "velocity": 0.6141732, "rh": true},{ "note": 52, "duration":0.5, "velocity": 0.5433071, "rh": false}]},{"acorde":[{ "note": 55, "duration":0.75, "velocity": 0.6220472, "rh": true},{ "note": 52, "duration":0.75, "velocity": 0.5511811, "rh": false},{ "note": 48, "duration":1, "velocity": 0.5748032, "rh": false},{ "note": 36, "duration":1.5, "velocity": 0.6062992, "rh": false}]},{"acorde":[{ "note": 53, "duration":0.25, "velocity": 0.6614173, "rh": true},{ "note": 50, "duration":0.25, "velocity": 0.5748032, "rh": false}]},{"acorde":[{ "note": 52, "duration":0.5, "velocity": 0.6299213, "rh": true},{ "note": 48, "duration":0.5, "velocity": 0.527559, "rh": false},{ "note": 43, "duration":0.5, "velocity": 0.5354331, "rh": false}]},{"acorde":[{ "note": 60, "duration":0.5, "velocity": 0.7401575, "rh": true},{ "note": 52, "duration":0.5, "velocity": 0.5826772, "rh": false},{ "note": 43, "duration":0.5, "velocity": 0.5433071, "rh": false},{ "note": 36, "duration":0.5, "velocity": 0.5984252, "rh": false}]},{"acorde":[{ "note": 60, "duration":0.5, "velocity": 0.7322835, "rh": true},{ "note": 52, "duration":0.5, "velocity": 0.5748032, "rh": false},{ "note": 43, "duration":1, "velocity": 0.5511811, "rh": false},{ "note": 36, "duration":1, "velocity": 0.5984252, "rh": false}]},{"acorde":[{ "note": 59, "duration":0.5, "velocity": 0.6929134, "rh": true},{ "note": 55, "duration":0.5, "velocity": 0.6141732, "rh": false}]},{"acorde":[{ "note": 57, "duration":0.5, "velocity": 0.6535433, "rh": true},{ "note": 53, "duration":0.5, "velocity": 0.5748032, "rh": false},{ "note": 48, "duration":1, "velocity": 0.5984252, "rh": false},{ "note": 36, "duration":1, "velocity": 0.5984252, "rh": false}]},{"acorde":[{ "note": 55, "duration":0.5, "velocity": 0.6141732, "rh": true},{ "note": 52, "duration":0.5, "velocity": 0.5511811, "rh": false}]},{"acorde":[{ "note": 55, "duration":0.75, "velocity": 0.6299213, "rh": true},{ "note": 52, "duration":0.75, "velocity": 0.5511811, "rh": false},{ "note": 48, "duration":1, "velocity": 0.5748032, "rh": false},{ "note": 36, "duration":1.5, "velocity": 0.5984252, "rh": false}]},{"acorde":[{ "note": 53, "duration":0.25, "velocity": 0.6614173, "rh": true},{ "note": 50, "duration":0.25, "velocity": 0.5748032, "rh": false}]},{"acorde":[{ "note": 52, "duration":0.5, "velocity": 0.6299213, "rh": true},{ "note": 48, "duration":0.5, "velocity": 0.527559, "rh": false},{ "note": 43, "duration":0.5, "velocity": 0.5354331, "rh": false}]},{"acorde":[{ "note": 52, "duration":0.5, "velocity": 0.6220472, "rh": true},{ "note": 48, "duration":0.5, "velocity": 0.527559, "rh": false}]},{"acorde":[{ "note": 52, "duration":0.5, "velocity": 0.6377953, "rh": true},{ "note": 48, "duration":0.5, "velocity": 0.5354331, "rh": false}]},{"acorde":[{ "note": 52, "duration":0.5, "velocity": 0.6456693, "rh": true},{ "note": 48, "duration":0.5, "velocity": 0.5433071, "rh": false}]},{"acorde":[{ "note": 52, "duration":0.5, "velocity": 0.6535433, "rh": true},{ "note": 48, "duration":0.5, "velocity": 0.5511811, "rh": false}]},{"acorde":[{ "note": 52, "duration":0.25, "velocity": 0.6535433, "rh": true},{ "note": 48, "duration":0.25, "velocity": 0.5590551, "rh": false},{ "note": 43, "duration":0.5, "velocity": 0.5590551, "rh": false},{ "note": 36, "duration":0.5, "velocity": 0.5984252, "rh": false}]},{"acorde":[{ "note": 53, "duration":0.25, "velocity": 0.6771653, "rh": true},{ "note": 50, "duration":0.25, "velocity": 0.5905512, "rh": false}]},{"acorde":[{ "note": 55, "duration":1.5, "velocity": 0.7165354, "rh": true},{ "note": 52, "duration":1.5, "velocity": 0.6220472, "rh": false},{ "note": 43, "duration":0.5, "velocity": 0.5590551, "rh": false},{ "note": 36, "duration":0.5, "velocity": 0.5984252, "rh": false}]},{"acorde":[{ "note": 43, "duration":0.5, "velocity": 0.5590551, "rh": false},{ "note": 36, "duration":0.5, "velocity": 0.5984252, "rh": false}]},{"acorde":[{ "note": 43, "duration":0.5, "velocity": 0.5590551, "rh": false},{ "note": 36, "duration":0.5, "velocity": 0.5984252, "rh": false}]},{"acorde":[{ "note": 53, "duration":0.25, "velocity": 0.6614173, "rh": true},{ "note": 50, "duration":0.25, "velocity": 0.5669292, "rh": false},{ "note": 43, "duration":0.5, "velocity": 0.5590551, "rh": false},{ "note": 31, "duration":0.5, "velocity": 0.5669292, "rh": false}]},{"acorde":[{ "note": 52, "duration":0.25, "velocity": 0.6456693, "rh": true},{ "note": 48, "duration":0.25, "velocity": 0.5433071, "rh": false}]},{"acorde":[{ "note": 50, "duration":0.5, "velocity": 0.6141732, "rh": true},{ "note": 47, "duration":0.5, "velocity": 0.527559, "rh": false},{ "note": 43, "duration":3.5, "velocity": 0.5590551, "rh": false},{ "note": 31, "duration":1.5, "velocity": 0.5748032, "rh": false}]},{"acorde":[{ "note": 50, "duration":0.5, "velocity": 0.6299213, "rh": true},{ "note": 47, "duration":0.5, "velocity": 0.5354331, "rh": false}]},{"acorde":[{ "note": 50, "duration":0.5, "velocity": 0.6377953, "rh": true},{ "note": 47, "duration":0.5, "velocity": 0.5433071, "rh": false}]},{"acorde":[{ "note": 50, "duration":0.25, "velocity": 0.6456693, "rh": true},{ "note": 47, "duration":0.25, "velocity": 0.5511811, "rh": false},{ "note": 31, "duration":0.5, "velocity": 0.5905512, "rh": false}]},{"acorde":[{ "note": 52, "duration":0.25, "velocity": 0.6850393, "rh": true},{ "note": 48, "duration":0.25, "velocity": 0.5669292, "rh": false}]},{"acorde":[{ "note": 53, "duration":1.5, "velocity": 0.7086614, "rh": true},{ "note": 50, "duration":1.5, "velocity": 0.6062992, "rh": false},{ "note": 31, "duration":0.5, "velocity": 0.5984252, "rh": false}]},{"acorde":[{ "note": 31, "duration":0.5, "velocity": 0.5984252, "rh": false}]},{"acorde":[{ "note": 31, "duration":0.5, "velocity": 0.5984252, "rh": false}]},{"acorde":[{ "note": 52, "duration":0.25, "velocity": 0.6692913, "rh": true},{ "note": 48, "duration":0.25, "velocity": 0.5590551, "rh": false},{ "note": 43, "duration":0.5, "velocity": 0.5590551, "rh": false},{ "note": 31, "duration":0.5, "velocity": 0.5984252, "rh": false}]},{"acorde":[{ "note": 50, "duration":0.25, "velocity": 0.6377953, "rh": true},{ "note": 47, "duration":0.25, "velocity": 0.5511811, "rh": false}]},{"acorde":[{ "note": 48, "duration":0.5, "velocity": 0.6062992, "rh": true},{ "note": 40, "duration":0.5, "velocity": 0.5511811, "rh": false},{ "note": 36, "duration":1.5, "velocity": 0.6456693, "rh": false}]},{"acorde":[{ "note": 60, "duration":1, "velocity": 0.7559055, "rh": true},{ "note": 52, "duration":1, "velocity": 0.5984252, "rh": false},{ "note": 43, "duration":1, "velocity": 0.5748032, "rh": false}]},{"acorde":[{ "note": 57, "duration":0.5, "velocity": 0.7007874, "rh": true},{ "note": 53, "duration":0.5, "velocity": 0.5905512, "rh": false},{ "note": 48, "duration":0.5, "velocity": 0.6062992, "rh": false},{ "note": 36, "duration":0.5, "velocity": 0.6141732, "rh": false}]},{"acorde":[{ "note": 55, "duration":0.75, "velocity": 0.6614173, "rh": true},{ "note": 52, "duration":0.75, "velocity": 0.5669292, "rh": false},{ "note": 48, "duration":1.5, "velocity": 0.5905512, "rh": false},{ "note": 36, "duration":1.5, "velocity": 0.6062992, "rh": false}]},{"acorde":[{ "note": 53, "duration":0.25, "velocity": 0.6850393, "rh": true},{ "note": 50, "duration":0.25, "velocity": 0.5905512, "rh": false}]},{"acorde":[{ "note": 52, "duration":0.5, "velocity": 0.6456693, "rh": true},{ "note": 48, "duration":0.5, "velocity": 0.5433071, "rh": false}]},{"acorde":[{ "note": 53, "duration":0.5, "velocity": 0.6456693, "rh": true},{ "note": 50, "duration":0.5, "velocity": 0.5590551, "rh": false},{ "note": 45, "duration":0.5, "velocity": 0.5511811, "rh": false},{ "note": 29, "duration":0.5, "velocity": 0.5826772, "rh": false}]},{"acorde":[{ "note": 52, "duration":1, "velocity": 0.6377953, "rh": true},{ "note": 48, "duration":1, "velocity": 0.5354331, "rh": false},{ "note": 43, "duration":1, "velocity": 0.5354331, "rh": false},{ "note": 31, "duration":1, "velocity": 0.5984252, "rh": false}]},{"acorde":[{ "note": 50, "duration":1, "velocity": 0.6299213, "rh": true},{ "note": 47, "duration":1, "velocity": 0.5354331, "rh": false},{ "note": 43, "duration":0.5, "velocity": 0.5511811, "rh": false},{ "note": 31, "duration":1, "velocity": 0.5984252, "rh": false}]},{"acorde":[{ "note": 41, "duration":0.5, "velocity": 0.5354331, "rh": false}]},{"acorde":[{ "note": 48, "duration":1.5, "velocity": 0.6299213, "rh": true},{ "note": 40, "duration":1.5, "velocity": 0.5354331, "rh": false},{ "note": 24, "duration":1.5, "velocity": 0.5748032, "rh": false}]},{"acorde":[{ "note": 0, "duration":0.5, "velocity": 0.5748032, "rh": false}]},{"acorde":[{ "note": 60, "duration":1, "velocity": 0.6929134, "rh": true},{ "note": 48, "duration":1, "velocity": 0.5590551, "rh": false},{ "note": 40, "duration":1, "velocity": 0.5590551, "rh": false},{ "note": 36, "duration":1, "velocity": 0.6535433, "rh": false}]},{"acorde":[{ "note": 59, "duration":0.75, "velocity": 0.6692913, "rh": true},{ "note": 48, "duration":0.75, "velocity": 0.5590551, "rh": false},{ "note": 43, "duration":0.75, "velocity": 0.5748032, "rh": false},{ "note": 36, "duration":0.75, "velocity": 0.6299213, "rh": false}]},{"acorde":[{ "note": 57, "duration":0.25, "velocity": 0.6929134, "rh": true},{ "note": 48, "duration":0.25, "velocity": 0.6062992, "rh": false},{ "note": 41, "duration":0.25, "velocity": 0.5984252, "rh": false},{ "note": 36, "duration":0.25, "velocity": 0.6614173, "rh": false}]},{"acorde":[{ "note": 55, "duration":1.5, "velocity": 0.6535433, "rh": true},{ "note": 48, "duration":1.5, "velocity": 0.5826772, "rh": false},{ "note": 40, "duration":1.5, "velocity": 0.5669292, "rh": false},{ "note": 36, "duration":1.5, "velocity": 0.6377953, "rh": false}]},{"acorde":[{ "note": 53, "duration":0.5, "velocity": 0.6377953, "rh": true},{ "note": 50, "duration":0.5, "velocity": 0.5748032, "rh": false},{ "note": 45, "duration":0.5, "velocity": 0.5826772, "rh": false},{ "note": 29, "duration":0.5, "velocity": 0.5826772, "rh": false}]},{"acorde":[{ "note": 52, "duration":1, "velocity": 0.6377953, "rh": true},{ "note": 48, "duration":1, "velocity": 0.5511811, "rh": false},{ "note": 43, "duration":1.5, "velocity": 0.5590551, "rh": false},{ "note": 31, "duration":1, "velocity": 0.5905512, "rh": false}]},{"acorde":[{ "note": 50, "duration":1, "velocity": 0.6377953, "rh": true},{ "note": 47, "duration":1, "velocity": 0.5511811, "rh": false},{ "note": 31, "duration":1, "velocity": 0.5984252, "rh": false},{ "note": 0, "duration":0.5, "velocity": 0.7, "rh": false}]},{"acorde":[{ "note": 41, "duration":0.5, "velocity": 0.5511811, "rh": false}]},{"acorde":[{ "note": 48, "duration":1.5, "velocity": 0.6377953, "rh": true},{ "note": 40, "duration":1.5, "velocity": 0.5433071, "rh": false},{ "note": 36, "duration":1.5, "velocity": 0.6220472, "rh": false}]},{"acorde":[{ "note": 55, "duration":0.5, "velocity": 0.6850393, "rh": true},{ "note": 52, "duration":0.5, "velocity": 0.5669292, "rh": false},{ "note": 48, "duration":0.5, "velocity": 0.5905512, "rh": false},{ "note": 40, "duration":0.5, "velocity": 0.6220472, "rh": false}]},{"acorde":[{ "note": 57, "duration":1.5, "velocity": 0.6929134, "rh": true},{ "note": 53, "duration":1.5, "velocity": 0.5669292, "rh": false},{ "note": 48, "duration":1.5, "velocity": 0.5826772, "rh": false},{ "note": 41, "duration":1.5, "velocity": 0.6220472, "rh": false}]},{"acorde":[{ "note": 57, "duration":0.5, "velocity": 0.6692913, "rh": true},{ "note": 53, "duration":0.5, "velocity": 0.5590551, "rh": false},{ "note": 48, "duration":0.5, "velocity": 0.5669292, "rh": false},{ "note": 41, "duration":0.5, "velocity": 0.6062992, "rh": false}]},{"acorde":[{ "note": 59, "duration":1.5, "velocity": 0.6771653, "rh": true},{ "note": 53, "duration":1.5, "velocity": 0.5590551, "rh": false},{ "note": 43, "duration":1.5, "velocity": 0.527559, "rh": false}]},{"acorde":[{ "note": 59, "duration":0.5, "velocity": 0.6692913, "rh": true},{ "note": 53, "duration":0.5, "velocity": 0.5590551, "rh": false},{ "note": 43, "duration":0.5, "velocity": 0.5511811, "rh": false}]},{"acorde":[{ "note": 60, "duration":2.5, "velocity": 0.6692913, "rh": true},{ "note": 52, "duration":2.5, "velocity": 0.5511811, "rh": false},{ "note": 43, "duration":2.5, "velocity": 0.5511811, "rh": false},{ "note": 36, "duration":2.5, "velocity": 0.5984252, "rh": false}]},{"acorde":[{ "note": 0, "duration":1, "velocity": 0.5905512, "rh": false}]},{"acorde":[{ "note": 60, "duration":0.5, "velocity": 0.6614173, "rh": true},{ "note": 52, "duration":0.5, "velocity": 0.5590551, "rh": false},{ "note": 43, "duration":0.5, "velocity": 0.5590551, "rh": false},{ "note": 36, "duration":0.5, "velocity": 0.6299213, "rh": false}]},{"acorde":[{ "note": 60, "duration":0.5, "velocity": 0.6614173, "rh": true},{ "note": 52, "duration":0.5, "velocity": 0.5590551, "rh": false},{ "note": 43, "duration":1, "velocity": 0.5590551, "rh": false},{ "note": 36, "duration":1, "velocity": 0.6220472, "rh": false}]},{"acorde":[{ "note": 59, "duration":0.5, "velocity": 0.6535433, "rh": true},{ "note": 55, "duration":0.5, "velocity": 0.5826772, "rh": false}]},{"acorde":[{ "note": 57, "duration":0.5, "velocity": 0.6299213, "rh": true},{ "note": 53, "duration":0.5, "velocity": 0.5590551, "rh": false},{ "note": 48, "duration":1, "velocity": 0.5905512, "rh": false},{ "note": 36, "duration":1, "velocity": 0.6141732, "rh": false}]},{"acorde":[{ "note": 55, "duration":0.5, "velocity": 0.6141732, "rh": true},{ "note": 52, "duration":0.5, "velocity": 0.5433071, "rh": false}]},{"acorde":[{ "note": 55, "duration":0.75, "velocity": 0.6220472, "rh": true},{ "note": 52, "duration":0.75, "velocity": 0.5511811, "rh": false},{ "note": 48, "duration":1, "velocity": 0.5748032, "rh": false},{ "note": 36, "duration":1.5, "velocity": 0.6062992, "rh": false}]},{"acorde":[{ "note": 53, "duration":0.25, "velocity": 0.6614173, "rh": true},{ "note": 50, "duration":0.25, "velocity": 0.5748032, "rh": false}]},{"acorde":[{ "note": 52, "duration":0.5, "velocity": 0.6299213, "rh": true},{ "note": 48, "duration":0.5, "velocity": 0.527559, "rh": false},{ "note": 43, "duration":0.5, "velocity": 0.5354331, "rh": false}]},{"acorde":[{ "note": 60, "duration":0.5, "velocity": 0.7401575, "rh": true},{ "note": 52, "duration":0.5, "velocity": 0.5826772, "rh": false},{ "note": 43, "duration":0.5, "velocity": 0.5433071, "rh": false},{ "note": 36, "duration":0.5, "velocity": 0.5984252, "rh": false}]},{"acorde":[{ "note": 60, "duration":0.5, "velocity": 0.7322835, "rh": true},{ "note": 52, "duration":0.5, "velocity": 0.5748032, "rh": false},{ "note": 43, "duration":1, "velocity": 0.5511811, "rh": false},{ "note": 36, "duration":1, "velocity": 0.5984252, "rh": false}]},{"acorde":[{ "note": 59, "duration":0.5, "velocity": 0.6929134, "rh": true},{ "note": 55, "duration":0.5, "velocity": 0.6141732, "rh": false}]},{"acorde":[{ "note": 57, "duration":0.5, "velocity": 0.6535433, "rh": true},{ "note": 53, "duration":0.5, "velocity": 0.5748032, "rh": false},{ "note": 48, "duration":1, "velocity": 0.5984252, "rh": false},{ "note": 36, "duration":1, "velocity": 0.5984252, "rh": false}]},{"acorde":[{ "note": 55, "duration":0.5, "velocity": 0.6141732, "rh": true},{ "note": 52, "duration":0.5, "velocity": 0.5511811, "rh": false}]},{"acorde":[{ "note": 55, "duration":0.75, "velocity": 0.6299213, "rh": true},{ "note": 52, "duration":0.75, "velocity": 0.5511811, "rh": false},{ "note": 48, "duration":1, "velocity": 0.5748032, "rh": false},{ "note": 36, "duration":1.5, "velocity": 0.5984252, "rh": false}]},{"acorde":[{ "note": 53, "duration":0.25, "velocity": 0.6614173, "rh": true},{ "note": 50, "duration":0.25, "velocity": 0.5748032, "rh": false}]},{"acorde":[{ "note": 52, "duration":0.5, "velocity": 0.6299213, "rh": true},{ "note": 48, "duration":0.5, "velocity": 0.527559, "rh": false},{ "note": 43, "duration":0.5, "velocity": 0.5354331, "rh": false}]},{"acorde":[{ "note": 52, "duration":0.5, "velocity": 0.6220472, "rh": true},{ "note": 48, "duration":0.5, "velocity": 0.527559, "rh": false}]},{"acorde":[{ "note": 52, "duration":0.5, "velocity": 0.6377953, "rh": true},{ "note": 48, "duration":0.5, "velocity": 0.5354331, "rh": false}]},{"acorde":[{ "note": 52, "duration":0.5, "velocity": 0.6456693, "rh": true},{ "note": 48, "duration":0.5, "velocity": 0.5433071, "rh": false}]},{"acorde":[{ "note": 52, "duration":0.5, "velocity": 0.6535433, "rh": true},{ "note": 48, "duration":0.5, "velocity": 0.5511811, "rh": false}]},{"acorde":[{ "note": 52, "duration":0.25, "velocity": 0.6535433, "rh": true},{ "note": 48, "duration":0.25, "velocity": 0.5590551, "rh": false},{ "note": 43, "duration":0.5, "velocity": 0.5590551, "rh": false},{ "note": 36, "duration":0.5, "velocity": 0.5984252, "rh": false}]},{"acorde":[{ "note": 53, "duration":0.25, "velocity": 0.6771653, "rh": true},{ "note": 50, "duration":0.25, "velocity": 0.5905512, "rh": false}]},{"acorde":[{ "note": 55, "duration":1.5, "velocity": 0.7165354, "rh": true},{ "note": 52, "duration":1.5, "velocity": 0.6220472, "rh": false},{ "note": 43, "duration":0.5, "velocity": 0.5590551, "rh": false},{ "note": 36, "duration":0.5, "velocity": 0.5984252, "rh": false}]},{"acorde":[{ "note": 43, "duration":0.5, "velocity": 0.5590551, "rh": false},{ "note": 36, "duration":0.5, "velocity": 0.5984252, "rh": false}]},{"acorde":[{ "note": 43, "duration":0.5, "velocity": 0.5590551, "rh": false},{ "note": 36, "duration":0.5, "velocity": 0.5984252, "rh": false}]},{"acorde":[{ "note": 53, "duration":0.25, "velocity": 0.6614173, "rh": true},{ "note": 50, "duration":0.25, "velocity": 0.5669292, "rh": false},{ "note": 43, "duration":0.5, "velocity": 0.5590551, "rh": false},{ "note": 31, "duration":0.5, "velocity": 0.5669292, "rh": false}]},{"acorde":[{ "note": 52, "duration":0.25, "velocity": 0.6456693, "rh": true},{ "note": 48, "duration":0.25, "velocity": 0.5433071, "rh": false}]},{"acorde":[{ "note": 50, "duration":0.5, "velocity": 0.6141732, "rh": true},{ "note": 47, "duration":0.5, "velocity": 0.527559, "rh": false},{ "note": 43, "duration":3.5, "velocity": 0.5590551, "rh": false},{ "note": 31, "duration":1.5, "velocity": 0.5748032, "rh": false}]},{"acorde":[{ "note": 50, "duration":0.5, "velocity": 0.6299213, "rh": true},{ "note": 47, "duration":0.5, "velocity": 0.5354331, "rh": false}]},{"acorde":[{ "note": 50, "duration":0.5, "velocity": 0.6377953, "rh": true},{ "note": 47, "duration":0.5, "velocity": 0.5433071, "rh": false}]},{"acorde":[{ "note": 50, "duration":0.25, "velocity": 0.6456693, "rh": true},{ "note": 47, "duration":0.25, "velocity": 0.5511811, "rh": false},{ "note": 31, "duration":0.5, "velocity": 0.5905512, "rh": false}]},{"acorde":[{ "note": 52, "duration":0.25, "velocity": 0.6850393, "rh": true},{ "note": 48, "duration":0.25, "velocity": 0.5669292, "rh": false}]},{"acorde":[{ "note": 53, "duration":1.5, "velocity": 0.7086614, "rh": true},{ "note": 50, "duration":1.5, "velocity": 0.6062992, "rh": false},{ "note": 31, "duration":0.5, "velocity": 0.5984252, "rh": false}]},{"acorde":[{ "note": 31, "duration":0.5, "velocity": 0.5984252, "rh": false}]},{"acorde":[{ "note": 31, "duration":0.5, "velocity": 0.5984252, "rh": false}]},{"acorde":[{ "note": 52, "duration":0.25, "velocity": 0.6692913, "rh": true},{ "note": 48, "duration":0.25, "velocity": 0.5590551, "rh": false},{ "note": 43, "duration":0.5, "velocity": 0.5590551, "rh": false},{ "note": 31, "duration":0.5, "velocity": 0.5984252, "rh": false}]},{"acorde":[{ "note": 50, "duration":0.25, "velocity": 0.6377953, "rh": true},{ "note": 47, "duration":0.25, "velocity": 0.5511811, "rh": false}]},{"acorde":[{ "note": 48, "duration":0.5, "velocity": 0.6062992, "rh": true},{ "note": 40, "duration":0.5, "velocity": 0.5511811, "rh": false},{ "note": 36, "duration":1.5, "velocity": 0.6456693, "rh": false}]},{"acorde":[{ "note": 60, "duration":1, "velocity": 0.7559055, "rh": true},{ "note": 52, "duration":1, "velocity": 0.5984252, "rh": false},{ "note": 43, "duration":1, "velocity": 0.5748032, "rh": false}]},{"acorde":[{ "note": 57, "duration":0.5, "velocity": 0.7007874, "rh": true},{ "note": 53, "duration":0.5, "velocity": 0.5905512, "rh": false},{ "note": 48, "duration":0.5, "velocity": 0.6062992, "rh": false},{ "note": 36, "duration":0.5, "velocity": 0.6141732, "rh": false}]},{"acorde":[{ "note": 55, "duration":0.75, "velocity": 0.6614173, "rh": true},{ "note": 52, "duration":0.75, "velocity": 0.5669292, "rh": false},{ "note": 48, "duration":1.5, "velocity": 0.5905512, "rh": false},{ "note": 36, "duration":1.5, "velocity": 0.6062992, "rh": false}]},{"acorde":[{ "note": 53, "duration":0.25, "velocity": 0.6850393, "rh": true},{ "note": 50, "duration":0.25, "velocity": 0.5905512, "rh": false}]},{"acorde":[{ "note": 52, "duration":0.5, "velocity": 0.6456693, "rh": true},{ "note": 48, "duration":0.5, "velocity": 0.5433071, "rh": false}]},{"acorde":[{ "note": 53, "duration":0.5, "velocity": 0.6456693, "rh": true},{ "note": 50, "duration":0.5, "velocity": 0.5590551, "rh": false},{ "note": 45, "duration":0.5, "velocity": 0.5511811, "rh": false},{ "note": 29, "duration":0.5, "velocity": 0.5826772, "rh": false}]},{"acorde":[{ "note": 52, "duration":1, "velocity": 0.6377953, "rh": true},{ "note": 48, "duration":1, "velocity": 0.5354331, "rh": false},{ "note": 43, "duration":1, "velocity": 0.5354331, "rh": false},{ "note": 31, "duration":1, "velocity": 0.5984252, "rh": false},{"note": 100, "duration":0,"velocity": 85,"rh": false}]},{"acorde":[{ "note": 50, "duration":1, "velocity": 0.6299213, "rh": true},{ "note": 47, "duration":1, "velocity": 0.5354331, "rh": false},{ "note": 43, "duration":0.5, "velocity": 0.5511811, "rh": false},{ "note": 31, "duration":1, "velocity": 0.5984252, "rh": false},{"note": 100, "duration":0,"velocity": 75,"rh": false}]},{"acorde":[{ "note": 41, "duration":0.5, "velocity": 0.5354331, "rh": false},{"note": 100, "duration":0,"velocity": 65,"rh": false}]},{"acorde":[{ "note": 48, "duration":2, "velocity": 0.6299213, "rh": true},{ "note": 40, "duration":2, "velocity": 0.5354331, "rh": false},{ "note": 24, "duration":2, "velocity": 0.5748032, "rh": false}]}]}