{"Secuencia": [{"title":"Silent Night"},{"acorde":[{"note": 100, "duration":0,"velocity": 50,"rh": false}]},{"acorde":[{ "note": 55, "duration":0.75, "velocity": 0.7716535, "rh": true},{ "note": 52, "duration":0.75, "velocity": 0.6614173, "rh": false},{ "note": 36, "duration":0.5, "velocity": 0.6614173, "rh": false}]},{"acorde":[{ "note": 40, "duration":0.5, "velocity": 0.6771653, "rh": false},{ "note": 0, "duration":0.25, "velocity": 0.7, "rh": false}]},{"acorde":[{ "note": 57, "duration":0.25, "velocity": 0.7952756, "rh": true},{ "note": 53, "duration":0.25, "velocity": 0.6771653, "rh": false}]},{"acorde":[{ "note": 55, "duration":0.5, "velocity": 0.7637795, "rh": true},{ "note": 52, "duration":0.5, "velocity": 0.6614173, "rh": false},{ "note": 43, "duration":0.5, "velocity": 0.6850393, "rh": false}]},{"acorde":[{ "note": 52, "duration":1.5, "velocity": 0.7401575, "rh": true},{ "note": 48, "duration":1.5, "velocity": 0.6299213, "rh": false},{ "note": 36, "duration":0.5, "velocity": 0.6377953, "rh": false}]},{"acorde":[{ "note": 40, "duration":0.5, "velocity": 0.6692913, "rh": false}]},{"acorde":[{ "note": 43, "duration":0.5, "velocity": 0.6850393, "rh": false}]},{"acorde":[{ "note": 55, "duration":0.75, "velocity": 0.7716535, "rh": true},{ "note": 52, "duration":0.75, "velocity": 0.6614173, "rh": false},{ "note": 36, "duration":0.5, "velocity": 0.6377953, "rh": false}]},{"acorde":[{ "note": 40, "duration":0.5, "velocity": 0.6692913, "rh": false},{ "note": 0, "duration":0.25, "velocity": 0.7, "rh": false}]},{"acorde":[{ "note": 57, "duration":0.25, "velocity": 0.7952756, "rh": true},{ "note": 53, "duration":0.25, "velocity": 0.6771653, "rh": false}]},{"acorde":[{ "note": 55, "duration":0.5, "velocity": 0.7637795, "rh": true},{ "note": 52, "duration":0.5, "velocity": 0.6614173, "rh": false},{ "note": 43, "duration":0.5, "velocity": 0.6850393, "rh": false}]},{"acorde":[{ "note": 52, "duration":1.5, "velocity": 0.7401575, "rh": true},{ "note": 48, "duration":1.5, "velocity": 0.6299213, "rh": false},{ "note": 36, "duration":0.5, "velocity": 0.6377953, "rh": false}]},{"acorde":[{ "note": 40, "duration":0.5, "velocity": 0.6692913, "rh": false}]},{"acorde":[{ "note": 43, "duration":0.5, "velocity": 0.6850393, "rh": false}]},{"acorde":[{ "note": 62, "duration":1, "velocity": 0.7795275, "rh": true},{ "note": 53, "duration":1, "velocity": 0.6614173, "rh": false},{ "note": 31, "duration":0.5, "velocity": 0.6220472, "rh": false}]},{"acorde":[{ "note": 38, "duration":0.5, "velocity": 0.6692913, "rh": false}]},{"acorde":[{ "note": 62, "duration":0.5, "velocity": 0.7716535, "rh": true},{ "note": 53, "duration":0.5, "velocity": 0.6614173, "rh": false},{ "note": 43, "duration":0.5, "velocity": 0.7086614, "rh": false}]},{"acorde":[{ "note": 59, "duration":1.5, "velocity": 0.7559055, "rh": true},{ "note": 53, "duration":1.5, "velocity": 0.6614173, "rh": false},{ "note": 31, "duration":0.5, "velocity": 0.6299213, "rh": false}]},{"acorde":[{ "note": 38, "duration":0.5, "velocity": 0.6771653, "rh": false}]},{"acorde":[{ "note": 43, "duration":0.5, "velocity": 0.7086614, "rh": false}]},{"acorde":[{ "note": 60, "duration":1, "velocity": 0.7716535, "rh": true},{ "note": 52, "duration":1, "velocity": 0.6614173, "rh": false},{ "note": 36, "duration":0.5, "velocity": 0.6377953, "rh": false}]},{"acorde":[{ "note": 40, "duration":0.5, "velocity": 0.6692913, "rh": false}]},{"acorde":[{ "note": 60, "duration":0.5, "velocity": 0.7716535, "rh": true},{ "note": 52, "duration":0.5, "velocity": 0.6614173, "rh": false},{ "note": 43, "duration":0.5, "velocity": 0.6850393, "rh": false}]},{"acorde":[{ "note": 55, "duration":1.5, "velocity": 0.7401575, "rh": true},{ "note": 52, "duration":1.5, "velocity": 0.6614173, "rh": false},{ "note": 36, "duration":0.5, "velocity": 0.6377953, "rh": false}]},{"acorde":[{ "note": 40, "duration":0.5, "velocity": 0.6692913, "rh": false}]},{"acorde":[{ "note": 43, "duration":0.5, "velocity": 0.6850393, "rh": false}]},{"acorde":[{ "note": 57, "duration":1, "velocity": 0.7716535, "rh": true},{ "note": 53, "duration":1, "velocity": 0.6614173, "rh": false},{ "note": 36, "duration":0.5, "velocity": 0.6377953, "rh": false}]},{"acorde":[{ "note": 41, "duration":0.5, "velocity": 0.6771653, "rh": false}]},{"acorde":[{ "note": 57, "duration":0.5, "velocity": 0.7716535, "rh": true},{ "note": 53, "duration":0.5, "velocity": 0.6614173, "rh": false},{ "note": 45, "duration":0.5, "velocity": 0.7007874, "rh": false}]},{"acorde":[{ "note": 60, "duration":0.75, "velocity": 0.7874016, "rh": true},{ "note": 57, "duration":0.75, "velocity": 0.6771653, "rh": false},{ "note": 36, "duration":0.5, "velocity": 0.6299213, "rh": false}]},{"acorde":[{ "note": 41, "duration":0.5, "velocity": 0.6692913, "rh": false},{ "note": 0, "duration":0.25, "velocity": 0.7, "rh": false}]},{"acorde":[{ "note": 59, "duration":0.25, "velocity": 0.7874016, "rh": true},{ "note": 55, "duration":0.25, "velocity": 0.6692913, "rh": false}]},{"acorde":[{ "note": 57, "duration":0.5, "velocity": 0.7559055, "rh": true},{ "note": 53, "duration":0.5, "velocity": 0.6456693, "rh": false},{ "note": 45, "duration":0.5, "velocity": 0.6929134, "rh": false}]},{"acorde":[{ "note": 55, "duration":0.75, "velocity": 0.7401575, "rh": true},{ "note": 52, "duration":0.75, "velocity": 0.6456693, "rh": false},{ "note": 36, "duration":0.5, "velocity": 0.6299213, "rh": false}]},{"acorde":[{ "note": 40, "duration":0.5, "velocity": 0.6614173, "rh": false},{ "note": 0, "duration":0.25, "velocity": 0.7, "rh": false}]},{"acorde":[{ "note": 57, "duration":0.25, "velocity": 0.7874016, "rh": true},{ "note": 53, "duration":0.25, "velocity": 0.6771653, "rh": false}]},{"acorde":[{ "note": 55, "duration":0.5, "velocity": 0.7637795, "rh": true},{ "note": 52, "duration":0.5, "velocity": 0.6614173, "rh": false},{ "note": 43, "duration":0.5, "velocity": 0.6850393, "rh": false}]},{"acorde":[{ "note": 52, "duration":1.5, "velocity": 0.7322835, "rh": true},{ "note": 48, "duration":1.5, "velocity": 0.6220472, "rh": false},{ "note": 36, "duration":0.5, "velocity": 0.6299213, "rh": false}]},{"acorde":[{ "note": 40, "duration":0.5, "velocity": 0.6692913, "rh": false}]},{"acorde":[{ "note": 43, "duration":0.5, "velocity": 0.6850393, "rh": false}]},{"acorde":[{ "note": 57, "duration":1, "velocity": 0.7795275, "rh": true},{ "note": 53, "duration":1, "velocity": 0.6771653, "rh": false},{ "note": 65, "duration":1, "velocity": 0.6771653, "rh": false},{ "note": 36, "duration":0.5, "velocity": 0.6377953, "rh": false}]},{"acorde":[{ "note": 41, "duration":0.5, "velocity": 0.6771653, "rh": false}]},{"acorde":[{ "note": 57, "duration":0.5, "velocity": 0.7716535, "rh": true},{ "note": 53, "duration":0.5, "velocity": 0.6614173, "rh": false},{ "note": 65, "duration":0.5, "velocity": 0.6614173, "rh": false},{ "note": 45, "duration":0.5, "velocity": 0.7007874, "rh": false}]},{"acorde":[{ "note": 60, "duration":0.75, "velocity": 0.7874016, "rh": true},{ "note": 57, "duration":0.75, "velocity": 0.6771653, "rh": false},{ "note": 69, "duration":0.75, "velocity": 0.6771653, "rh": false},{ "note": 36, "duration":0.5, "velocity": 0.6299213, "rh": false}]},{"acorde":[{ "note": 41, "duration":0.5, "velocity": 0.6692913, "rh": false},{ "note": 0, "duration":0.25, "velocity": 0.7, "rh": false}]},{"acorde":[{ "note": 59, "duration":0.25, "velocity": 0.7874016, "rh": true},{ "note": 55, "duration":0.25, "velocity": 0.6692913, "rh": false},{ "note": 67, "duration":0.25, "velocity": 0.6692913, "rh": false}]},{"acorde":[{ "note": 57, "duration":0.5, "velocity": 0.7559055, "rh": true},{ "note": 53, "duration":0.5, "velocity": 0.6456693, "rh": false},{ "note": 65, "duration":0.5, "velocity": 0.6456693, "rh": false},{ "note": 45, "duration":0.5, "velocity": 0.6929134, "rh": false}]},{"acorde":[{ "note": 55, "duration":0.75, "velocity": 0.7401575, "rh": true},{ "note": 52, "duration":0.75, "velocity": 0.6456693, "rh": false},{ "note": 64, "duration":0.75, "velocity": 0.6456693, "rh": false},{ "note": 36, "duration":0.5, "velocity": 0.6299213, "rh": false}]},{"acorde":[{ "note": 40, "duration":0.5, "velocity": 0.6614173, "rh": false},{ "note": 0, "duration":0.25, "velocity": 0.7, "rh": false}]},{"acorde":[{ "note": 57, "duration":0.25, "velocity": 0.7874016, "rh": true},{ "note": 53, "duration":0.25, "velocity": 0.6771653, "rh": false},{ "note": 65, "duration":0.25, "velocity": 0.6771653, "rh": false}]},{"acorde":[{ "note": 55, "duration":0.5, "velocity": 0.7637795, "rh": true},{ "note": 52, "duration":0.5, "velocity": 0.6614173, "rh": false},{ "note": 64, "duration":0.5, "velocity": 0.6614173, "rh": false},{ "note": 43, "duration":0.5, "velocity": 0.6850393, "rh": false}]},{"acorde":[{ "note": 52, "duration":1.5, "velocity": 0.7322835, "rh": true},{ "note": 48, "duration":1.5, "velocity": 0.6220472, "rh": false},{ "note": 60, "duration":1.5, "velocity": 0.6220472, "rh": false},{ "note": 36, "duration":0.5, "velocity": 0.6299213, "rh": false}]},{"acorde":[{ "note": 40, "duration":0.5, "velocity": 0.6692913, "rh": false}]},{"acorde":[{ "note": 43, "duration":0.5, "velocity": 0.6850393, "rh": false}]},{"acorde":[{ "note": 62, "duration":1, "velocity": 0.7795275, "rh": true},{ "note": 50, "duration":1, "velocity": 0.6614173, "rh": false},{ "note": 59, "duration":1, "velocity": 0.6614173, "rh": false},{ "note": 31, "duration":0.5, "velocity": 0.6220472, "rh": false}]},{"acorde":[{ "note": 38, "duration":0.5, "velocity": 0.6692913, "rh": false}]},{"acorde":[{ "note": 62, "duration":0.5, "velocity": 0.7716535, "rh": true},{ "note": 50, "duration":0.5, "velocity": 0.6614173, "rh": false},{ "note": 59, "duration":0.5, "velocity": 0.6614173, "rh": false},{ "note": 41, "duration":0.5, "velocity": 0.6850393, "rh": false}]},{"acorde":[{ "note": 65, "duration":0.75, "velocity": 0.7874016, "rh": true},{ "note": 47, "duration":0.75, "velocity": 0.6771653, "rh": false},{ "note": 59, "duration":0.75, "velocity": 0.6771653, "rh": false},{ "note": 62, "duration":0.75, "velocity": 0.6771653, "rh": false},{ "note": 31, "duration":0.5, "velocity": 0.6299213, "rh": false}]},{"acorde":[{ "note": 38, "duration":0.5, "velocity": 0.6771653, "rh": false},{ "note": 0, "duration":0.25, "velocity": 0.7, "rh": false}]},{"acorde":[{ "note": 62, "duration":0.25, "velocity": 0.7716535, "rh": true},{ "note": 50, "duration":0.75, "velocity": 0.6299213, "rh": false},{ "note": 55, "duration":0.25, "velocity": 0.6299213, "rh": false}]},{"acorde":[{ "note": 59, "duration":0.5, "velocity": 0.7401575, "rh": true},{ "note": 53, "duration":0.5, "velocity": 0.6220472, "rh": false},{ "note": 41, "duration":0.5, "velocity": 0.6929134, "rh": false}]},{"acorde":[{ "note": 60, "duration":1.5, "velocity": 0.7637795, "rh": true},{ "note": 48, "duration":1.5, "velocity": 0.6377953, "rh": false},{ "note": 52, "duration":1.5, "velocity": 0.6377953, "rh": false},{ "note": 36, "duration":0.5, "velocity": 0.6456693, "rh": false}]},{"acorde":[{ "note": 40, "duration":0.5, "velocity": 0.6771653, "rh": false}]},{"acorde":[{ "note": 43, "duration":0.5, "velocity": 0.6929134, "rh": false}]},{"acorde":[{ "note": 64, "duration":1, "velocity": 0.7795275, "rh": true},{ "note": 43, "duration":1.5, "velocity": 0.6614173, "rh": false},{ "note": 55, "duration":1.5, "velocity": 0.6614173, "rh": false},{ "note": 36, "duration":0.5, "velocity": 0.6377953, "rh": false}]},{"acorde":[{ "note": 40, "duration":0.5, "velocity": 0.6692913, "rh": false}]},{"acorde":[{ "note": 43, "duration":0.5, "velocity": 0.6850393, "rh": false}]},{"acorde":[{ "note": 60, "duration":0.5, "velocity": 0.7637795, "rh": true},{ "note": 55, "duration":0.5, "velocity": 0.6614173, "rh": false},{ "note": 48, "duration":1, "velocity": 0.5984252, "rh": false},{ "note": 36, "duration":0.5, "velocity": 0.6377953, "rh": false}]},{"acorde":[{ "note": 55, "duration":0.5, "velocity": 0.7480315, "rh": true},{ "note": 52, "duration":0.5, "velocity": 0.6456693, "rh": false},{ "note": 40, "duration":0.5, "velocity": 0.6692913, "rh": false}]},{"acorde":[{ "note": 52, "duration":0.5, "velocity": 0.7401575, "rh": true},{ "note": 48, "duration":0.5, "velocity": 0.6299213, "rh": false},{ "note": 43, "duration":0.5, "velocity": 0.6850393, "rh": false}]},{"acorde":[{ "note": 55, "duration":0.75, "velocity": 0.7795275, "rh": true},{ "note": 53, "duration":0.75, "velocity": 0.6771653, "rh": false},{ "note": 43, "duration":1.5, "velocity": 0.5984252, "rh": false},{ "note": 31, "duration":0.5, "velocity": 0.6220472, "rh": false}]},{"acorde":[{ "note": 38, "duration":0.5, "velocity": 0.6692913, "rh": false},{ "note": 0, "duration":0.25, "velocity": 0.7, "rh": false}]},{"acorde":[{ "note": 53, "duration":0.25, "velocity": 0.7795275, "rh": true},{ "note": 50, "duration":0.25, "velocity": 0.6692913, "rh": false}]},{"acorde":[{ "note": 50, "duration":0.5, "velocity": 0.7480315, "rh": true},{ "note": 47, "duration":0.5, "velocity": 0.6377953, "rh": false},{ "note": 31, "duration":0.5, "velocity": 0.6377953, "rh": false}]},{"acorde":[{ "note": 48, "duration":3, "velocity": 0.7322835, "rh": true},{ "note": 40, "duration":3, "velocity": 0.6141732, "rh": false},{ "note": 43, "duration":3, "velocity": 0.6141732, "rh": false},{ "note": 24, "duration":0.5, "velocity": 0.6299213, "rh": false}]},{"acorde":[{ "note": 28, "duration":0.5, "velocity": 0.6614173, "rh": false}]},{"acorde":[{ "note": 31, "duration":0.5, "velocity": 0.6692913, "rh": false}]},{"acorde":[{ "note": 24, "duration":1.5, "velocity": 0.6929134, "rh": false},{ "note": 36, "duration":1.5, "velocity": 0.6929134, "rh": false}]}]}